<svg id="Слой_1" data-name="Слой 1" xmlns="http://www.w3.org/2000/svg" viewBox="0 0 960 258.43"><defs><style>.cls-1{fill:#fff;}.cls-2{fill:#3cb371;}</style></defs><title>ToUpWhite</title><path class="cls-1" d="M74.82,258.39V53H0V0H205.92V53h0a78.13,78.13,0,0,0-78.13,78.13h0v127.3Z" transform="translate(0 0.04)"/><path class="cls-1" d="M458.6,52.48V258.39H252.69V52.48Zm-152.94,53h0v100h100a100,100,0,0,0-100-100h0Z" transform="translate(0 0.04)"/><path class="cls-2" d="M711.29,0V258.39H505.37V0h53V105.45a100,100,0,0,0,100,100h0V0Z" transform="translate(0 0.04)"/><path class="cls-2" d="M754.08,258.39V52.48H960V182.25H883.2a76.14,76.14,0,0,0-76.15,76.13h-53Zm53-129.11H907V105.45H807Z" transform="translate(0 0.04)"/></svg>